# xmcd
#
# Track frame offsets: 
#        150
#        14845
#        25295
#        39827
#        59980
#        75312
#        94625
#        113017
#        124627
#        136792
#        157245
#        171025
#        185930
#        205547
#        218042
#        232202
#        247280
#        270657
#        284860
#        299495
#
# Disc length: 4167 seconds
#
# Revision: 0
# Processed by: cddbd v1.4PL0 Copyright (c) Steve Scherf et al.
# Submitted via: ExactAudioCopy v0.95a3
#
DISCID=37104514
DTITLE=Various Artist - platinova_country_kolekce
DYEAR=2003
DGENRE=Country
TTITLE0=michal tucny - jizansky rok
TTITLE1=kabat - colorado
TTITLE2=karel gott - della
TTITLE3=vera martinova - z knihy vazane ovci kuzi
TTITLE4=robert krestan a druha trava - jeste jedno kafe
TTITLE5=karel cernoch a filip brabec - vic nez pritel
TTITLE6=pavel bobek - nocni dest jde georgii
TTITLE7=kto - jdem dal
TTITLE8=honza vycital a greenhorns - to tenkrat v ctyricatom patom
TTITLE9=spiritual kvintet - uz nechci se vdat
TTITLE10=kamelot - zachrante kone
TTITLE11=rangers zas bude pani vsechno ok
TTITLE12=sarka rezkova - boruvkova
TTITLE13=jaroslav samson lenk - real story
TTITLE14=eva olmerova - cekej tise
TTITLE15=fesaci - leta jdou
TTITLE16=michal tucny a allan mikusek - len chciet vzdyt vis
TTITLE17=taxmeni - karbanik nema si zenskou brat
TTITLE18=mirek hoffmann a novi zelenaci mirka hoffmanna - dlouha cerna
TTITLE18=limuzina
TTITLE19=yvonne prenosilova a pavel bobek - cestou dlouhou
EXTD=
EXTT0=
EXTT1=
EXTT2=
EXTT3=
EXTT4=
EXTT5=
EXTT6=
EXTT7=
EXTT8=
EXTT9=
EXTT10=
EXTT11=
EXTT12=
EXTT13=
EXTT14=
EXTT15=
EXTT16=
EXTT17=
EXTT18=
EXTT19=
PLAYORDER=
